<svg id="Слой_1" data-name="Слой 1" xmlns="http://www.w3.org/2000/svg" viewBox="0 0 143.7 142.49"><defs><style>.cls-1{fill:#aeb8c8;stroke:#aeb8c8;stroke-miterlimit:10;stroke-width:9px;}</style></defs><path class="cls-1" d="M35.48,57.41a25.54,25.54,0,0,1-11.12.19C21.27,57.08,11.7,55,7,47.81,1.72,39.68,5.36,29.12,12.58,23,19.25,17.28,31.4,13.3,41,17.89,50.88,22.58,51.6,33.1,51.71,34.64,52.36,44.19,45.72,54.66,35.48,57.41Z"/><path class="cls-1" d="M54.15,34.32,94.57,34l0-13.41,3.65,0,3.66,0c0-2.67,0-5.34-.08-8s0-5.34-.07-8l30.24.27q-.06,4.16-.14,8.3H106.57L106.83,25l.21,9.14q12.31-.28,24.83-.3H134l-51.52,61v28.8l21.78.13.14,14.07-59,.14.15-14.61,22.5.14L67.45,95q-14.62-18-29.24-36"/></svg>