<svg id="Слой_1" data-name="Слой 1" xmlns="http://www.w3.org/2000/svg" viewBox="0 0 137.53 138.56"><defs><style>.cls-1{fill:none;stroke:#fff;stroke-miterlimit:10;stroke-width:7px;}</style></defs><path class="cls-1" d="M7.69,3.5q10,0,20,.1l0,6,7.67-.05,3.33.18.1,8.54.06,4.47q42-.83,84.53-.59l5.08,0v5l5.61.24q0,15.06.05,30.13l-5.65-.12c0,2,0,3.94,0,5.92l-5.53,0L122.74,81l-5.52-.21-.1,5.92-17,.08-.58,5.61L49,92.52l-.24-5.92-5.44-.11L43.05,75H37.43q0-8.8,0-17.62l-5.59-.13q-.06-8.7-.13-17.4l-5.37-.05-.09-17.57-22.6.13L4.2,3.5Z"/><path class="cls-1" d="M52.39,104.61a12.58,12.58,0,0,0-4.79-1.23,16.27,16.27,0,0,0-6.81,1.1c-6.17,2.67-11.5,15.16-5.61,23.61,3.61,5.18,11.08,8.23,17,5.87,8.74-3.52,9.25-17.12,5.87-23.61A12.82,12.82,0,0,0,52.39,104.61Z"/><path class="cls-1" d="M113.7,104.87a12.9,12.9,0,0,0-11-.26C95.49,108,91.65,120.13,97,128.09c3.5,5.2,10.83,8.49,16.57,6.26,8.23-3.19,9.47-16.31,5.74-23.61A13.19,13.19,0,0,0,113.7,104.87Z"/></svg>