<svg id="Слой_1" data-name="Слой 1" xmlns="http://www.w3.org/2000/svg" viewBox="0 0 137.96 134.32"><defs><style>.cls-1,.cls-2{fill:none;stroke:#aeb8c8;stroke-miterlimit:10;}.cls-1{stroke-width:7px;}.cls-2{stroke-width:5px;}</style></defs><path class="cls-1" d="M85.81,3.5q11,0,21.93,0v6.52l5.25,0h1.33q0,9.7.11,19.4l6.61,0q.06,13,.11,26.08l6.19-.1q.21,2.51.33,5.13c0,.54,0,1.09.06,1.63l6.71.35-.06,29.12-6.45-.06q0,18.54,0,37.08v2l-64.27.06q0-19.47-.07-38.93l-6.77.06q.23-15.06.44-30.13l6.53.07V55.48h6.45q0-11,.07-22l-9.85-.13-.13,6.32-13,.2-.06,13.24-6.66-.13q.06,6.78.13,13.59c0,2.77.07,5.54.1,8.32l6.62,0v13l5.68.07q.15,14.91.29,29.83H47.36l0,6.49-6.59.2,0,6.39-24.31.07.19-6.59-6.91-.13.2-6.33-6.46-.06.85-42.39H9.83L10,68.39H23.26l.23-25.63,6.43-.19-.13-13.11,6.91.13.2-6.13,6.58-.26-.13-6.59,13.7.13-.13-6.33L77,10.09V3.5Z"/><path class="cls-2" d="M87.9,34.48h13.49V47.79H87.94Q87.93,41.13,87.9,34.48Z"/><path class="cls-2" d="M83.53,67.15h22.24V87L83.63,86.9Z"/></svg>