<svg id="Слой_1" data-name="Слой 1" xmlns="http://www.w3.org/2000/svg" viewBox="0 0 141.98 146.29"><defs><style>.cls-1,.cls-2{fill:none;stroke:#aeb8c8;stroke-miterlimit:10;}.cls-1{stroke-width:11px;}.cls-2{stroke-width:10px;}</style></defs><path class="cls-1" d="M19.7,0c0,4.48,0,55.21,0,110.41v.94"/><path class="cls-2" d="M33.72,0c0,4.48,0,55.21,0,110.41v.94"/><path class="cls-2" d="M41,0c0,4.48,0,55.21,0,110.41v.94"/><path class="cls-2" d="M54.25,0c0,4.48,0,55.21,0,110.41v.94"/><path class="cls-2" d="M68.18,0c0,4.48,0,55.21,0,110.41v.94"/><path class="cls-2" d="M74.51,0c0,4.48,0,55.21,0,110.41v.94"/><path class="cls-2" d="M88.86,0c0,4.48,0,55.21,0,110.41v.94"/><path class="cls-2" d="M102.64,0c0,4.48,0,55.21,0,110.41v.94"/><path class="cls-2" d="M109,0c0,4.48,0,55.21,0,110.41v.94"/><path class="cls-2" d="M123,0c0,4.48,0,55.21,0,110.41v.94"/><path class="cls-2" d="M137,0c0,4.48,0,55.21,0,110.41v.94"/><path class="cls-2" d="M137,30.38c0,4.48,0,55.21,0,110.41v.94"/><path class="cls-1" d="M5.5,0c0,3.47,0,55.21,0,110.41v.94"/><path class="cls-1" d="M5.51,30.38c0,4.48,0,55.21,0,110.41v.94"/></svg>