<svg id="Слой_1" data-name="Слой 1" xmlns="http://www.w3.org/2000/svg" viewBox="0 0 135.35 137.64"><defs><style>.cls-1{fill:none;}.cls-1,.cls-2{stroke:#b7c1cf;stroke-miterlimit:10;stroke-width:6px;}.cls-2{fill:#b7c1cf;}</style></defs><path class="cls-1" d="M16.68,3.05H40.11l0,6.48,55.64-.11L95.53,3.1h23.33l2.88-.05v9.34l3.82,0v6.78h6.78l-.06,27.26-6.85-.06q.06,17,.13,34l-6.85-.06q0,13.53.07,27.06l-6.79.07.13,6.85H105l.14,6.71H98.3l.13,6.85-20.35-.06L78,134.64H64.32l.06-6.84-27.19.06.06-6.91-6.78.06-.06-6.84-6.85.13.16-13.67-7,.1L17,80.28l-7.14.1.23-34.11L3,46.4,3.15,19h6.91V12.23l6.65.13Z"/><path class="cls-2" d="M44,46.29l13.5,0,.1,13.7H44Z"/><path class="cls-2" d="M78,46.21l13.5-.07V59.77L78,59.84Z"/><path class="cls-2" d="M57.64,68.91,77.82,69l.12,18.31-20.32-.11Q57.64,78,57.64,68.91Z"/></svg>