<?xml version="1.0" encoding="utf-8"?>
<!-- Generator: Adobe Illustrator 26.1.0, SVG Export Plug-In . SVG Version: 6.00 Build 0)  -->
<svg version="1.1" id="Слой_1" xmlns="http://www.w3.org/2000/svg" xmlns:xlink="http://www.w3.org/1999/xlink" x="0px" y="0px"
	 viewBox="0 0 132.6 139.2" style="enable-background:new 0 0 132.6 139.2;" xml:space="preserve">
<style type="text/css">
	.st0{fill:none;stroke:#AEB8C8;stroke-width:8;stroke-miterlimit:10;}
	.st1{opacity:0.7;fill:none;stroke:#AEB8C8;stroke-width:8;stroke-miterlimit:10;enable-background:new    ;}
</style>
<path class="st0" d="M8.8,9.3v32.1h24v89.5h12V41.4h24V10H57v18.9H44.8V9.8H32.6c0.1,6.3,0.2,12.6,0.4,18.9H20.5l0.3-19.2L8.8,9.3z"
	/>
<path class="st1" d="M94.1,9.3h5.1l0.1,61.2c5.1,0,10.3,0.1,15.5,0.1c3.3,0,6.6,0,9.9,0c-0.2,8.3-0.2,13.7-0.2,17.3
	c0,2.6,0,5.1,0,9.1c0,1.9,0,3.1,0,5.3c0,2.5,0.1,4.6,0.1,5.3c0,2.9,0,3.2,0,6.8c0,1.2,0,2.2,0,2.8h-6.4v6.8h-6.3v6.7l-30.5,0.1
	l-0.1-6.9h-6.1v-6.8h-6.2c0-15.5,0-31.1-0.1-46.7l25.4,0.1c0-1.6-0.1-4.1-0.1-7.1c0-3.9,0-6.3,0-10.4c0-3.7,0-5.4,0-10.8
	c0-5.2,0-14,0-29.9L94.1,9.3z"/>
</svg>
