<?xml version="1.0" encoding="utf-8"?>
<!-- Generator: Adobe Illustrator 26.1.0, SVG Export Plug-In . SVG Version: 6.00 Build 0)  -->
<svg version="1.1" id="Слой_1" xmlns="http://www.w3.org/2000/svg" xmlns:xlink="http://www.w3.org/1999/xlink" x="0px" y="0px"
	 viewBox="0 0 137.1 89.6" style="enable-background:new 0 0 137.1 89.6;" xml:space="preserve">
<style type="text/css">
	.st0{fill:none;stroke:#9D9D9C;stroke-width:4;stroke-miterlimit:10;}
	.st1{fill:#9D9D9C;stroke:#9D9D9C;stroke-miterlimit:10;}
</style>
<path class="st0" d="M28.4,10.7c6.6-1.7,37.4-2.3,79.3-0.4c1,0.1,2,0.3,3,0.6c6.2,2,9.1,7.4,10.1,9.3c4.8,24.7,7.6,38.6,8.7,42.9
	c0.2,0.8,0.4,1.7,0.4,2.5c0.2,7.8-6.7,14.2-15.3,14.4c-2.7,0-5.4-0.5-7.7-1.7c-3.7-2-6.3-5.2-7.4-9c0.9-0.3,1.7-0.6,2.4-1.1
	c3.5-2.3,4.8-7,3.7-10.9c-1-3.1-3.5-5.7-6.8-7.1c-5.9-2.5-13-0.1-15.7,5.3c-0.3,0.5-0.5,1-0.6,1.6l-27.8,0.4
	c-0.2-0.4-0.4-0.8-0.6-1.2c-1.1-1.9-2.7-3.5-4.6-4.7c-1.4-0.9-2.9-1.5-4.5-1.8c-2.1-0.4-4.2-0.3-6.3,0.3c-4.8,1.6-8.1,5.8-8.1,10.5
	c0,3.9,2.7,8.2,5.9,9.5c0.5,0.1,0.8,0.4,1.1,0.7c0.9,1.7-2.9,5.4-6.3,7.3c-2.7,1.7-5.9,2.5-9.1,2.4c-7-0.3-11.1-5-11.7-5.8
	c-2.3-2.8-3.4-6.3-3.2-9.8c2.9-15.2,5.8-30.4,8.7-45.6c0.5-0.9,1-1.7,1.7-2.4C20.4,13.8,24.2,11.7,28.4,10.7z"/>
<path class="st1" d="M30.6,20.5c0,2.1,0,4.1,0,6.1l-6.2,0.1v6.7l6.6-0.1l0.1,5.8l6.8,0.1l0.1-6h6.2v-6.5l-5.9-0.2
	c0-2,0.1-4.1,0.1-6.1C36.3,20.5,33.6,20.5,30.6,20.5z"/>
<path class="st1" d="M87.4,23.9c-2.6,0.8-4.4,3.2-4.4,5.9c0.1,3.6,3.1,6.5,6.8,6.4c0,0,0.1,0,0.1,0c4-0.4,6.9-5.6,5.1-9.3
	C93.5,24.3,90.3,23,87.4,23.9z"/>
<path class="st1" d="M93.6,20.9c-0.2-3.5,2.4-6.4,5.9-6.6c3.5-0.2,6.4,2.4,6.6,5.9c0.2,3.3-2.3,6.3-5.6,6.6
	c-3.5,0.3-6.6-2.2-6.9-5.7C93.6,21,93.6,20.9,93.6,20.9z"/>
<path class="st1" d="M110.5,23.7c3.5,0.1,6.2,3,6.1,6.5c-0.1,3.2-2.6,5.8-5.8,6.1c-4.1,0.2-7.6-4.3-6.5-8.1
	C105,25.4,107.6,23.6,110.5,23.7z"/>
<path class="st1" d="M100,33.2c3.1,0.1,5.8,2.5,6.1,5.6c0.2,3.6-2.5,6.6-6.1,6.8c-0.1,0-0.3,0-0.4,0c-3.6-0.3-6.3-3.5-6-7.1
	c0-0.3,0.1-0.6,0.1-0.9C94.6,34.8,97.1,33,100,33.2z"/>
</svg>
