<?xml version="1.0" encoding="utf-8"?>
<!-- Generator: Adobe Illustrator 26.1.0, SVG Export Plug-In . SVG Version: 6.00 Build 0)  -->
<svg version="1.1" id="Слой_1" xmlns="http://www.w3.org/2000/svg" xmlns:xlink="http://www.w3.org/1999/xlink" x="0px" y="0px"
	 viewBox="0 0 138 138.8" style="enable-background:new 0 0 138 138.8;" xml:space="preserve">
<style type="text/css">
	.st0{fill:none;stroke:#AEB8C8;stroke-width:7;stroke-miterlimit:10;}
	.st1{fill:none;stroke:#AEB8C8;stroke-width:2;stroke-miterlimit:10;}
	.st2{fill:#AEB8C8;stroke:#AEB8C8;stroke-width:2;stroke-miterlimit:10;}
</style>
<path class="st0" d="M31.1,3.5l75.7,0.3v7.3h7.6v40.4l20.1,0.3v75.1h-13.8v6.3l-13.6,0.3l0.3-6.8l-76.2,0.3l-0.3,6.5H17.6l0.3-6.5
	l-14.4,0.3V52l20.6-0.3V10.8h6.8L31.1,3.5z"/>
<path class="st0" d="M31.1,5.3l75.7,0.3v7.3h7.6v40.4l20.1,0.3v75.1h-13.8v6.3l-13.6,0.3l0.3-6.8l-76.2,0.3l-0.3,6.5H17.6l0.3-6.5
	l-14.4,0.3V53.8l20.6-0.3v-41h6.8L31.1,5.3z"/>
<path class="st1" d="M21.2,67.3h7c0,16,0,32-0.1,48l-6.8,0.1C21.3,99.4,21.3,83.3,21.2,67.3z"/>
<path class="st1" d="M110.4,69.4h7l-0.1,48l-6.8,0.1C110.5,101.4,110.5,85.4,110.4,69.4z"/>
<path class="st1" d="M37.3,89.3h62.2c0,9.2,0,18.3,0.1,27.5l-62.3-0.1L37.3,89.3z"/>
<path class="st2" d="M51.2,28h13.7v13.7H51.1L51.2,28z"/>
<path class="st2" d="M71.8,28h13.9v13.7H71.8L71.8,28z"/>
<path class="st2" d="M51.1,48.5h13.7l0.1,13.7H51.1L51.1,48.5z"/>
<path class="st2" d="M71.8,48.5h14l-0.2,13.7H71.8L71.8,48.5z"/>
</svg>
