<?xml version="1.0"?>
<svg xmlns="http://www.w3.org/2000/svg" width="240" height="40" viewBox="0 0 240 40" fill="none">
<path d="M39.9998 20.0882C39.9558 31.1355 30.947 40.0439 19.9119 39.9998C8.87674 39.9557 -0.04389 30.9591 0.000162457 19.9118C0.044215 8.86448 9.05295 -0.043938 20.0881 0.000163037C31.1453 0.0442641 40.0439 9.04088 39.9998 20.0882Z" fill="#221F1F"/>
<path d="M27.203 29.9007C25.0885 33.6934 22.4674 36.8025 19.5379 36.7364C17.7097 36.6922 15.9696 36.0087 14.3837 34.9282C14.8904 34.0021 18.0842 29.3715 27.203 29.9007ZM39.4717 20.0882C39.4276 30.8268 30.6611 39.5147 19.9123 39.4486C9.16353 39.4045 0.529236 30.6504 0.529236 19.9118C0.529236 12.9438 4.00938 7.93834 7.31332 5.24818C11.3662 1.96265 14.1194 4.47641 15.0886 6.39481C14.9785 5.57894 14.6481 3.24158 13.745 1.56574C15.7274 0.882172 17.8639 0.507313 20.0885 0.529363C30.8374 0.595515 39.5157 9.32753 39.4717 20.0882ZM18.9652 8.88652C21.7846 6.96812 26.6524 5.90969 29.2294 9.92289C27.6656 0.749869 20.9035 6.01995 18.9652 8.88652ZM15.0445 17.5524C15.6392 16.8909 16.3221 16.2293 17.115 15.634C20.6392 12.9218 24.4938 12.2382 25.7493 14.1345C26.2339 14.8622 26.2559 15.8765 25.8815 16.9791C27.1369 14.9063 27.5334 12.9879 26.7625 11.9295C25.463 10.1654 21.4321 11.3782 17.7538 14.6417C16.6745 15.5458 15.7714 16.5601 15.0445 17.5524ZM8.89921 19.1841C10.6833 19.5149 12.6216 17.2437 13.2164 14.0684C13.8111 10.8931 12.8639 8.07065 11.0798 7.71784C9.29568 7.38708 7.35737 9.65829 6.76267 12.8336C6.16796 15.9868 7.11509 18.8313 8.89921 19.1841ZM33.7008 15.3473C16.6304 26.7916 4.84638 20.9923 4.84638 20.9923C4.67017 24.9614 11.4763 37.1553 19.5819 37.3097C27.7096 37.464 33.7008 15.3473 33.7008 15.3473ZM7.24724 12.8997C7.7979 9.98905 9.47189 7.87219 10.9917 8.1809C12.5115 8.46756 13.3045 11.0695 12.7758 13.9802C12.2252 16.8909 10.5512 19.0077 9.03137 18.699C7.48953 18.4124 6.69659 15.8104 7.24724 12.8997ZM10.4851 15.3694C11.1679 15.5237 11.9168 14.6858 12.1811 13.5171C12.4454 12.3485 12.093 11.268 11.4102 11.1357C10.9477 11.0254 10.4631 11.3782 10.1107 11.9736C10.419 12.1279 10.5732 12.5249 10.419 12.8556C10.2869 13.1643 9.9785 13.3187 9.67013 13.2525C9.53797 14.2889 9.86837 15.215 10.4851 15.3694Z" fill="#05BC52"/>
<path d="M76.7025 18.1538H71.3736C71.0697 17.4942 70.4434 17.1107 69.7145 16.8866C67.7346 16.2404 65.5759 16.2135 63.5775 16.8103C61.9061 17.3074 61.2352 18.3333 61.2583 20.1168C61.2799 21.8043 61.9694 22.7999 63.6279 23.2524C65.6141 23.8018 67.7377 23.7761 69.7073 23.1787C70.4932 22.9464 71.1263 22.5466 71.4096 21.8462H76.7185C76.6333 22.8378 76.2336 23.7062 75.6025 24.5019C74.2046 26.2643 72.2122 27.1692 69.9492 27.6269C67.1261 28.1964 64.3146 28.153 61.588 27.2244C57.8911 25.9657 55.9534 23.3484 56.0009 19.8143C56.0455 16.5143 58.1689 13.851 61.8082 12.7435C65.4475 11.6361 69.0926 11.7334 72.5937 13.2538C74.684 14.1627 76.1625 15.6055 76.6462 17.752C76.6676 17.8857 76.6863 18.0196 76.7025 18.1538Z" fill="white"/>
<path d="M91.0676 22.0375L90.7884 22.6413C90.6231 22.2937 90.5447 22.1332 90.4693 21.9793C90.1335 21.2514 89.797 20.5237 89.4605 19.7959C88.4338 17.5754 87.407 15.3547 86.3975 13.1264C86.1944 12.6687 85.926 12.5002 85.382 12.5095C83.5427 12.5347 81.7062 12.5268 79.8698 12.5095C79.3896 12.5042 79.1851 12.617 79.1851 13.1025C79.1996 17.8786 79.1996 22.6546 79.1851 27.4306C79.1836 27.8724 79.3591 28.005 79.8204 27.9971C81.0302 27.9719 82.24 27.956 83.4469 27.9971C84.0968 28.0249 84.3289 27.8591 84.3173 27.2289C84.2884 25.6229 84.294 24.0169 84.2997 22.4109C84.302 21.7617 84.3042 21.1122 84.3042 20.4629C84.3042 20.3265 84.3159 20.1895 84.3275 20.0527C84.3333 19.9846 84.3391 19.9166 84.3434 19.8487C84.5425 20.0236 84.6961 20.2371 84.7931 20.4735C85.0898 21.1188 85.3875 21.7637 85.6854 22.4087C86.4579 24.0819 87.2306 25.7554 87.9844 27.4359C88.1686 27.8591 88.408 28.0024 88.8939 27.9918C90.1511 27.9635 91.4083 27.9635 92.6655 27.9918C93.1544 28.0024 93.3879 27.8405 93.5736 27.4279C94.4056 25.5733 95.2587 23.7262 96.1118 21.8793L96.1188 21.864C96.3343 21.3975 96.5498 20.9309 96.7649 20.4642C96.8386 20.3046 96.9192 20.1482 97 19.9915C97.0355 19.9228 97.0709 19.8541 97.1058 19.785C97.2302 19.9869 97.29 20.2168 97.2784 20.4483C97.279 20.937 97.2801 21.4256 97.2812 21.914C97.2852 23.7259 97.2892 25.536 97.2697 27.347C97.2639 27.8352 97.4133 28.0051 97.9617 27.9905C99.2193 27.9613 100.477 27.9692 101.733 27.9905C102.196 27.9984 102.37 27.8657 102.37 27.4253C102.356 22.6493 102.356 17.8732 102.37 13.0972C102.371 12.6223 102.179 12.5002 101.69 12.5002C99.8039 12.5214 97.9181 12.5268 96.0324 12.5002C95.5218 12.4923 95.3158 12.6979 95.1402 13.0893C94.3355 14.889 93.5154 16.6864 92.695 18.4845L92.6893 18.497C92.4424 19.0381 92.1955 19.5793 91.9489 20.1206C91.6676 20.7405 91.3846 21.3523 91.0676 22.0375Z" fill="white"/>
<path fill-rule="evenodd" clip-rule="evenodd" d="M170.482 20.3131C170.4 20.2584 170.316 20.203 170.235 20.1466C170.271 20.0762 170.314 20.0091 170.364 19.946C173.116 17.4309 172.12 13.8787 168.372 12.8721C167.886 12.7228 167.381 12.6335 166.869 12.6065C164.576 12.5767 162.279 12.5589 159.982 12.5411C158.393 12.5289 156.803 12.5166 155.214 12.5003C154.668 12.4899 154.668 12.7838 154.668 13.1272L154.669 13.966C154.673 18.4341 154.678 22.8977 154.66 27.3626C154.658 27.8672 154.846 28 155.378 28C157.051 27.9923 158.723 27.9927 160.395 27.993C162.195 27.9933 163.994 27.9937 165.794 27.9841C167.217 27.9761 168.621 27.8314 169.928 27.2444C172.723 25.9882 173.292 22.4917 170.987 20.6684C170.827 20.5427 170.655 20.4281 170.482 20.3131ZM161.767 23.9361C161.162 23.9337 160.553 23.9312 159.939 23.9312V21.9698H162.069C162.408 21.9702 162.748 21.9674 163.088 21.9647C163.916 21.9579 164.748 21.9511 165.58 21.9897C166.011 22.0057 166.541 22.1318 166.834 22.3881C167.411 22.8927 166.949 23.9006 166.133 23.9179C164.686 23.948 163.238 23.9421 161.767 23.9361ZM161.337 18.3563C160.873 18.3551 160.407 18.3538 159.939 18.3538V16.5465H161.522C161.913 16.5469 162.304 16.5457 162.695 16.5445C163.645 16.5416 164.595 16.5387 165.543 16.5585C166.398 16.5757 166.833 17.0392 166.591 17.7098C166.498 17.9674 166.126 18.318 165.87 18.3246C164.361 18.3643 162.858 18.3603 161.337 18.3563Z" fill="white"/>
<path d="M141.288 18.7422L141.289 18.7409L142.445 17.3685C142.77 16.982 143.093 16.5946 143.417 16.2073L143.418 16.2062C144.325 15.1202 145.233 14.0335 146.163 12.9677C146.406 12.7154 146.746 12.5586 147.112 12.5297C147.836 12.5024 148.559 12.5055 149.283 12.5086C149.86 12.511 150.437 12.5135 151.013 12.5005C151.567 12.4886 151.701 12.6823 151.7 13.1641C151.684 17.8967 151.684 22.6302 151.7 27.3646C151.7 27.8742 151.508 28.0095 150.987 27.9989C149.759 27.9724 148.531 27.9671 147.304 27.9989C146.726 28.0162 146.567 27.8277 146.573 27.3115C146.592 25.5364 146.589 23.7613 146.587 21.9862V21.9843C146.586 21.3499 146.585 20.7155 146.585 20.0812V19.3765L146.424 19.322C146.371 19.3808 146.318 19.4393 146.264 19.4978C146.127 19.6479 145.989 19.7981 145.859 19.9538C145.438 20.4554 145.017 20.957 144.596 21.4586L144.594 21.4608L144.593 21.462L144.592 21.463C142.899 23.481 141.208 25.4969 139.491 27.5026C139.235 27.7698 138.877 27.9362 138.491 27.9671C137.526 28.0094 136.557 28.0012 135.589 27.9931C135.281 27.9905 134.973 27.9879 134.665 27.987C134.524 27.987 134.383 27.9733 134.229 27.9583C134.153 27.9509 134.073 27.9431 133.989 27.9366C133.985 27.8388 133.979 27.7487 133.974 27.6629C133.965 27.5159 133.957 27.3818 133.957 27.2451C133.957 26.2253 133.958 25.2054 133.958 24.1855V24.1807C133.96 20.5368 133.961 16.8922 133.941 13.2477C133.941 12.6598 134.117 12.4793 134.752 12.5032C135.931 12.5456 137.113 12.5417 138.29 12.5032C138.906 12.4833 139.065 12.6943 139.059 13.2304C139.039 15.1443 139.043 17.059 139.046 18.9732V18.9743C139.047 19.4702 139.049 19.9663 139.049 20.4621C139.046 20.6102 139.056 20.7606 139.07 20.9707L139.07 20.973C139.077 21.0805 139.085 21.2036 139.092 21.3499C139.87 20.4253 140.59 19.5711 141.288 18.7422Z" fill="white"/>
<path d="M125.344 16.7964V27.9862C125.802 27.9862 126.253 27.9832 126.698 27.9801C127.681 27.9734 128.637 27.9668 129.588 27.9942C130.28 28.0168 130.488 27.8257 130.488 27.1798C130.462 22.5602 130.462 17.942 130.488 13.325C130.492 12.691 130.301 12.5 129.6 12.5C126.171 12.5211 122.745 12.5186 119.32 12.5162C118.216 12.5154 117.111 12.5146 116.006 12.5146C115.061 12.5146 115.06 12.5159 115.039 13.357L115.039 13.3648C115.028 13.8072 115.018 14.2495 115.008 14.6915C114.957 16.8603 114.906 19.0259 114.832 21.1909C114.776 23.02 114.173 23.605 112.229 23.7575C111.831 23.788 111.75 23.9472 111.75 24.2563C111.75 24.4995 111.748 24.7426 111.746 24.9858C111.743 25.4722 111.739 25.9586 111.75 26.4449C111.758 26.7504 111.752 26.9973 111.748 27.1963C111.738 27.5727 111.733 27.7783 111.837 27.887C111.961 28.0179 112.244 28.0085 112.865 27.9878C113.043 27.9819 113.248 27.9751 113.486 27.9703C116.595 27.9146 118.446 26.563 119.16 23.8026C119.425 22.776 119.491 21.7069 119.544 20.6537C119.588 19.762 119.578 18.869 119.568 17.9676C119.564 17.5789 119.559 17.1887 119.559 16.7964H125.344Z" fill="white"/>
<path fill-rule="evenodd" clip-rule="evenodd" d="M222.293 27.432C222.288 27.3544 222.283 27.2807 222.279 27.2099C222.268 27.0456 222.257 26.8965 222.257 26.748C222.257 25.7231 222.258 24.6982 222.259 23.6733C222.261 20.2139 222.263 16.7545 222.241 13.295C222.241 12.6767 222.43 12.4731 223.143 12.5028C224.32 12.553 225.498 12.544 226.675 12.5028C227.303 12.4835 227.547 12.6316 227.518 13.2177C227.491 13.777 227.496 14.3377 227.501 14.8989V14.9001C227.506 15.4126 227.511 15.9256 227.491 16.4383C227.472 16.9691 227.659 17.1378 228.276 17.1391C230.405 17.1391 232.543 17.1571 234.664 17.246C237.94 17.3852 239.936 19.2312 239.998 22.0923C240.069 25.3271 238.04 27.3316 234.345 27.4346C231.616 27.5096 228.88 27.5029 226.148 27.4961C224.984 27.4933 223.82 27.4904 222.658 27.4939C222.534 27.4817 222.412 27.461 222.293 27.432ZM227.5 21.103V21.787C227.488 23.5751 227.488 23.5905 229.5 23.5712C230.864 23.5609 232.231 23.5364 233.593 23.4746C234.291 23.4424 234.604 23.0379 234.623 22.4363C234.661 21.4907 234.199 21.0953 232.905 21.0734C231.662 21.0533 230.419 21.0609 229.176 21.0686L229.173 21.0686C228.902 21.0703 228.631 21.072 228.359 21.0734C228.178 21.0697 227.993 21.079 227.78 21.0898L227.778 21.0899L227.777 21.0899C227.69 21.0943 227.598 21.0989 227.5 21.103Z" fill="white"/>
<path d="M214.4 27.4974V16.602H215.283C215.692 16.602 216.1 16.5998 216.509 16.5977C217.51 16.5924 218.511 16.5871 219.511 16.6136C220.12 16.6303 220.289 16.4387 220.263 15.9166C220.213 15.0389 220.213 14.1595 220.263 13.2818C220.306 12.6466 220.053 12.5 219.375 12.5C215.456 12.5181 211.537 12.5165 207.618 12.515C206.521 12.5146 205.423 12.5141 204.326 12.5141C204.136 12.5141 203.946 12.5275 203.755 12.5409C203.669 12.547 203.582 12.553 203.496 12.5579V16.6123H209.299V17.4623C209.299 18.0641 209.299 18.666 209.299 19.2678V19.274C209.298 21.7995 209.296 24.3244 209.315 26.8493C209.316 27.0666 209.531 27.4691 209.659 27.4691C210.881 27.5036 212.104 27.5012 213.378 27.4987C213.715 27.498 214.056 27.4974 214.4 27.4974Z" fill="white"/>
<path d="M174.885 27.4973V12.5009H177.305C177.521 12.5009 177.736 12.5026 177.952 12.5043C178.383 12.5077 178.815 12.5112 179.248 12.5009C179.664 12.488 179.819 12.6141 179.818 13.0155C179.814 14.7817 179.813 16.548 179.812 18.3142C179.811 21.2166 179.809 24.1189 179.796 27.0213C179.796 27.1834 179.565 27.4805 179.436 27.4844C178.304 27.5029 177.17 27.5008 176.015 27.4986C175.641 27.4979 175.264 27.4973 174.885 27.4973Z" fill="white"/>
<path d="M110.737 22.1784C110.739 21.5378 110.741 20.8971 110.741 20.2567C110.741 19.5642 110.74 18.8717 110.739 18.1795L110.739 18.1664C110.738 16.4966 110.736 14.8282 110.744 13.1644C110.748 12.6771 110.592 12.4886 110.016 12.5005C108.678 12.5258 107.337 12.5178 105.997 12.5005C105.516 12.4939 105.33 12.6293 105.33 13.0701C105.347 17.8497 105.347 22.6292 105.33 27.4088C105.328 27.8974 105.556 28.0062 106.053 27.9983C107.319 27.9717 108.584 27.9558 109.846 27.9983C110.531 28.0195 110.766 27.8496 110.756 27.2229C110.727 25.5434 110.732 23.8605 110.737 22.1784Z" fill="white"/>
<path d="M194.448 16.5616C195.703 16.7748 196.936 17.0899 197.452 18.2267H202.807C202.581 16.3437 201.524 14.8839 199.798 13.88C196.025 11.685 191.942 11.5483 187.796 12.7674C184.156 13.8353 182.093 16.463 182.012 19.789C181.928 23.2808 183.798 25.8558 187.432 27.171C189.835 28.0469 192.355 28.1468 194.896 27.8286C197.058 27.5563 199.054 26.8909 200.693 25.5231C201.877 24.5367 202.609 23.36 202.783 21.8895H197.461C197.105 22.7421 196.238 23.1029 195.291 23.3242C193.559 23.7307 191.743 23.7397 190.007 23.3505C188.162 22.9559 187.259 21.8867 187.259 20.0626C187.259 18.2385 188.181 17.0956 190.007 16.6826C191.46 16.3522 192.975 16.3109 194.448 16.5616Z" fill="white"/>
</svg>
