<svg id="Слой_1" data-name="Слой 1" xmlns="http://www.w3.org/2000/svg" viewBox="0 0 121.05 129.79"><defs><style>.cls-1{fill:#aeb8c8;stroke:#aeb8c8;stroke-miterlimit:10;}</style></defs><path class="cls-1" d="M12.9,14.09A17.43,17.43,0,0,0,8.2,16.7c-9.15,7.18-9.5,23-4.43,33.13C5,52.19,6.41,55,9.51,56.35c5.05,2.2,11.2-1,14.35-3.65,9.58-8.19,10.5-28.44.52-35.74C22.71,15.75,19.14,13.71,12.9,14.09Z"/><path class="cls-1" d="M56.53.51a16.94,16.94,0,0,0-5.19,1.4C40.73,6.67,36.58,22,39.06,33c.58,2.57,1.32,5.66,4,7.71,4.38,3.34,11.11,1.76,14.81-.09C69.14,35,74.91,15.54,67,6.05,65.66,4.47,62.67,1.64,56.53.51Z"/><path class="cls-1" d="M98.66,20.27a17.5,17.5,0,0,0-5.3-.86c-11.63,0-21.71,12.2-24,23.28-.53,2.59-1.13,5.71.47,8.68,2.62,4.85,9.41,6.17,13.53,6,12.6-.5,25.86-15.84,22.53-27.75C105.35,27.64,103.8,23.84,98.66,20.27Z"/><path class="cls-1" d="M115.85,69.47a17.29,17.29,0,0,0-4.93-2.15c-11.26-2.91-24,6.44-29,16.6-1.15,2.38-2.5,5.25-1.69,8.53,1.33,5.34,7.58,8.31,11.62,9.17,12.32,2.64,29-8.93,28.7-21.29C120.5,78.27,119.94,74.19,115.85,69.47Z"/><path class="cls-1" d="M3.12,80C4.35,74.9,8,71.8,9.51,70.57c8-6.71,14.32-2.21,24.39-8.48,6.06-3.77,5.74-6.64,11-8.09a19,19,0,0,1,15.78,3c7.5,5.56,9.4,16.75,9.13,23.22-.11,2.56-.64,6.28.78,11.22.87,3,1.76,4,2.87,6.52.67,1.49,5.28,11.8,1.31,21-.57,1.3-3.19,7.34-9.14,9.52-7.07,2.6-16.39-1.17-22.43-9.68l-2-1a23.54,23.54,0,0,1-3.32-2.12c-.31-.24-.8-.63-2.61-2.25-1.12-1-2-1.86-2.68-2.45a35.43,35.43,0,0,1-20-9.23C10.49,99.69.6,90.26,3.12,80Z"/></svg>