<svg id="Слой_1" data-name="Слой 1" xmlns="http://www.w3.org/2000/svg" viewBox="0 0 126.56 139.26"><defs><style>.cls-1,.cls-2{fill:none;stroke:#aeb8c8;stroke-miterlimit:10;}.cls-1{stroke-width:7px;}.cls-2{stroke-width:3px;}</style></defs><path class="cls-1" d="M10.26,51.5l89.25-.19.33-31.37-18.2-.07V30.63l8,0,.15,12c-6,0-10.79,0-14.09-.1-3.88-.08-5.69-.16-9.15-.1-3.17.06-4.67.19-8.22.24-3.1,0-5.64,0-7.33,0l.55-12,6.59.06.2-7,6.65.06,0-6.68,7,0,0-6.82H78.8L78.73,3.5h23.39l.26,6.64,6.72-.06.11,6.93,6.8,0q0,20.52,0,41l6.87-.07.12,49.74h-7l0,7.45-6.87.06v6.85h-6.79l-.09,13.67-14.19-.11V122l-47.72-.07-.15,13.69-16.57-.1V122l-6.65.1v-6.88l-6.91-.16,0-6.72-6.33.06-.2-50.16h6.8Z"/><polygon class="cls-2" points="11.44 66.08 25.13 66.08 25.13 86.82 66.61 86.82 66.61 66.08 114.74 66.08 114.74 93.47 107.99 93.47 107.89 106.97 18.38 106.97 18.29 100.02 11.44 100.12 11.44 66.08"/></svg>