<svg id="Слой_1" data-name="Слой 1" xmlns="http://www.w3.org/2000/svg" viewBox="0 0 143.22 142.63"><defs><style>.cls-1{fill:none;}.cls-1,.cls-3{stroke:#d2d2d2;stroke-miterlimit:10;stroke-width:9px;}.cls-2{fill:#d2d1d1;}.cls-3{fill:#d2d2d2;}</style></defs><path class="cls-1" d="M89.77,6.36A75,75,0,0,0,52.24,7.5a67.05,67.05,0,0,0-19.1,8.65C18.14,26.27,6.48,44.43,4.73,65.34,1.87,99.39,26.94,120.9,28.91,122.53a69.09,69.09,0,0,0,66.91,11.6,66.54,66.54,0,0,0,30.63-23.2,67.94,67.94,0,0,0,12.1-34.19c1.71-24.19-9.52-51.27-30.64-63.59A62.77,62.77,0,0,0,89.77,6.36Z"/><path class="cls-2" d="M46.76,58.11a21.76,21.76,0,0,1,.59-15.65c3.15-7,9.22-9.8,11.74-11,1.7-.79,13-6,23.67.39A24.65,24.65,0,0,1,94.3,54.78L73,87.07l-9.78.19.19-14.48A40.78,40.78,0,0,0,76.89,58.7q1.53-8.3,3-16.59c-12.13-2.31-16.67-.2-18.51,2.3-3.28,4.47,1,11.56-2.34,14.68C56.44,61.51,51,59.86,46.76,58.11Z"/><path class="cls-3" d="M63.59,98.51h9.19v8.41h-9Z"/></svg>