<svg id="Слой_1" data-name="Слой 1" xmlns="http://www.w3.org/2000/svg" viewBox="0 0 143.72 143.33"><defs><style>.cls-1{fill:none;stroke:#eaedf1;stroke-miterlimit:10;stroke-width:14px;}</style></defs><path class="cls-1" d="M13.16,80.94a27.64,27.64,0,0,1,2.06-12c3.27-7.77,9.62-12.5,21.38-21.27,3.32-2.5,5.35-3.77,10.54-7.78,3.8-2.93,4.42-3.53,9.52-7.46,6.86-5.29,6.37-4.68,8.68-6.65,2-1.67,5-4.41,8.47-7.28a31.24,31.24,0,0,1,4.71-3.2S79.71,14.64,81,14c7.13-3.41,25.53-11,39.16-4.43C135,16.79,142,39.83,132.12,64l-75.3,63.62a16.92,16.92,0,0,1-6.63,6.45c-12.59,6.58-38.49-1.69-42.62-18.64-2.48-10.2,3.34-21.62,14.27-28.85L85.17,32.94c6.85-4,15.59-3.91,21.73.2a16.74,16.74,0,0,1,5,22.73l-61.68,54.2a6,6,0,0,1-4.35.2c-3.7-1.53-4.89-8.6-2.27-17.69l55.88-48"/></svg>