<svg id="Слой_1" data-name="Слой 1" xmlns="http://www.w3.org/2000/svg" viewBox="0 0 125.51 136.16"><defs><style>.cls-1{fill:none;stroke-width:7px;}.cls-1,.cls-2{stroke:#aeb8c8;stroke-miterlimit:10;}.cls-2{fill:#aeb8c8;}</style></defs><path class="cls-1" d="M22.13,3.57H59.89L60,10l5.44-.08V3.57l37.83-.06.11,6.49,6.22,0,0,6.38,6,.12.07,6.15,6.29.05L122,68.23H103.21q.14,32.22.26,64.43l-81.7-.14q.16-32.19.32-64.37l-18.58.19.13-45.26,6-.23V16.29h6.22l-.08-6.41,6.31,0Z"/><path class="cls-2" d="M56.53,45.38l12.36,0,0,12.95H56.56Z"/><path class="cls-2" d="M56.56,71.49l12.36,0q0,6.48,0,13H56.6Q56.59,77.95,56.56,71.49Z"/></svg>