<svg id="Слой_1" data-name="Слой 1" xmlns="http://www.w3.org/2000/svg" viewBox="0 0 136.52 136.27"><defs><style>.cls-1,.cls-2{fill:none;stroke:#aeb8c8;stroke-miterlimit:10;}.cls-1{stroke-width:7px;}.cls-2{stroke-width:3px;}</style></defs><path class="cls-1" d="M10.15,3.5H85l.26,7h6.79l.13,6.79,20.34.13v6.65l6.79-.13.13,6.91H133v6.78l-13.56-.13-.13,6.79h-6.66v6.91l-20.6-.13V58l-6.79.13V64.8h-34q.06,13.58.13,27.13h13.3v6.66l6.92.13V126l-6.92-.13.13,6.91-54.52-.13v-6.78L3.5,126V98.72h6.78V91.8H24V64.67l-6.78.13-.27-6.91H10.41l-.13-6.78-6.52.13-.13-34h6.78Z"/><path class="cls-2" d="M17.48,13.67l61.4.1q-.06,17-.13,34H17.45Z"/><path class="cls-2" d="M88.35,30.71l13.56.06v6.92l-13.69-.14Z"/></svg>